Coordinates
version=1
nRows=14
nColumns=40
inDegrees=yes

Units are S.I. units (second, meters, Newtons, ...)
Angles are in degrees.

endheader
time	pelvis_tilt	pelvis_list	pelvis_rotation	pelvis_tx	pelvis_ty	pelvis_tz	hip_flexion_r	hip_adduction_r	hip_rotation_r	knee_angle_r	knee_angle_r_beta	ankle_angle_r	subtalar_angle_r	mtp_angle_r	hip_flexion_l	hip_adduction_l	hip_rotation_l	knee_angle_l	knee_angle_l_beta	ankle_angle_l	subtalar_angle_l	mtp_angle_l	lumbar_extension	lumbar_bending	lumbar_rotation	arm_flex_r	arm_add_r	arm_rot_r	elbow_flex_r	pro_sup_r	wrist_flex_r	wrist_dev_r	arm_flex_l	arm_add_l	arm_rot_l	elbow_flex_l	pro_sup_l	wrist_flex_l	wrist_dev_l
     18.05642857	     -2.48864628	     -4.41855296	      3.67285861	      1.01782264	      0.90926416	      0.54296727	     16.30012080	      5.09863002	     -8.46690961	     32.35921155	     32.35921155	     19.00882963	    -12.45265612	      0.04746243	     32.40145592	    -13.12315333	      2.99509855	     67.40903331	     67.40903331	     15.02413045	    -19.54960392	     21.91595073	    -11.24474922	      5.79987883	      1.18830318	     21.49429959	    -17.39917078	    -15.23759800	     49.14644453	     45.69364495	      0.00000000	      0.00000000	      6.17990376	     -7.77761137	     -3.39286548	     27.61982522	     46.34758709	      0.00000000	      0.00000000
     18.07535714	     -2.41866418	     -4.36885457	      4.37643758	      1.01606647	      0.90840322	      0.54297582	     16.05071767	      5.10004871	     -8.61295682	     32.56413847	     32.56413847	     19.43233644	    -13.17315339	      0.26931307	     33.41735738	    -12.95086431	      3.07185312	     65.75179286	     65.75179286	     15.39335321	    -19.55544616	     22.21636314	    -11.33575056	      5.65797767	      0.47366507	     23.81733220	    -16.75065523	    -15.13181419	     51.65300577	     45.60916948	      0.00000000	      0.00000000	      4.02431936	     -7.91294956	     -2.85085315	     25.86567794	     46.22009004	      0.00000000	      0.00000000
     18.09428571	     -2.39703630	     -4.32669486	      5.05403925	      1.01426843	      0.90809435	      0.54262522	     15.66389204	      5.05702689	     -8.90986150	     32.42714813	     32.42714813	     19.78843948	    -13.50009338	      0.46210753	     34.24783670	    -12.69764044	      3.09542220	     63.53401534	     63.53401534	     15.52311132	    -19.54931819	     22.31407384	    -11.37371566	      5.51177020	      0.60718180	     25.68638430	    -16.92988077	    -15.01169460	     53.66031913	     45.54283237	      0.00000000	      0.00000000	      2.17801977	     -7.83157361	     -2.30689141	     24.80774859	     46.08821885	      0.00000000	      0.00000000
     18.11321429	     -2.47573973	     -4.30099848	      5.72419196	      1.01233807	      0.90815960	      0.54194892	     15.28267456	      4.99532703	     -9.27013006	     32.08674105	     32.08674105	     20.14030609	    -13.59124902	      0.94397461	     34.95434929	    -12.34911077	      3.12292880	     60.79869912	     60.79869912	     15.20538060	    -19.52596825	     21.59873907	    -11.37346579	      5.40963185	      1.25382706	     26.63238014	    -17.86901379	    -14.19301623	     57.37384118	     45.39735538	      0.00000000	      0.00000000	      0.33313800	     -8.03187883	      0.59069932	     24.67016665	     45.50546763	      0.00000000	      0.00000000
     18.13214286	     -2.75940772	     -4.28082103	      6.37462727	      1.01029115	      0.90841717	      0.54091838	     15.07958727	      4.88836485	     -9.65101938	     31.65053234	     31.65053234	     20.21949615	    -13.74617416	      1.02668336	     35.69432252	    -11.81706418	      3.24689009	     57.70691059	     57.70691059	     15.06429056	    -19.46455723	     21.88233699	    -11.05855399	      5.27898681	      1.96743557	     28.47591616	    -18.67487008	    -14.40787119	     58.19710871	     45.38798623	      0.00000000	      0.00000000	     -1.16292754	     -7.89431049	      0.67448639	     24.14663265	     45.46344487	      0.00000000	      0.00000000
     18.15107143	     -2.80993082	     -4.11634384	      7.04912844	      1.00840027	      0.90975334	      0.53948968	     14.24045776	      4.63805131	    -10.17596143	     30.56777944	     30.56777944	     20.26676518	    -13.40219899	      1.02220450	     35.77852735	    -11.06121950	      3.35565482	     54.04300800	     54.04300800	     14.33586379	    -19.39987910	     21.08700202	    -11.16482295	      5.06354696	      1.43109960	     30.84439665	    -18.32088515	    -14.24491439	     60.60073439	     45.31254187	      0.00000000	      0.00000000	     -3.25015154	     -7.93396545	      1.31062327	     23.73525986	     45.30279655	      0.00000000	      0.00000000
     18.17000000	     -3.16073132	     -4.01686081	      7.68367722	      1.00645296	      0.91081481	      0.53782856	     13.77553292	      4.37468497	    -10.78878362	     29.55239556	     29.55239556	     20.07982317	    -13.06146393	      0.56024968	     35.91072421	    -10.30546260	      3.46485901	     49.95638902	     49.95638902	     12.69951033	    -19.28635568	     18.11021823	    -10.88038719	      4.87367438	      1.63713366	     32.42590173	    -18.97894487	    -13.46515548	     63.26044085	     45.21455611	      0.00000000	      0.00000000	     -5.48931742	     -8.21166570	      2.99584314	     25.08810710	     44.93409769	      0.00000000	      0.00000000
     18.18892857	     -3.41455915	     -3.88191106	      8.24462938	      1.00458412	      0.91243493	      0.53594980	     13.06706517	      4.14334449	    -11.26655875	     28.29762342	     28.29762342	     19.90949556	    -12.72424874	      0.67641100	     35.72532730	     -9.37273289	      3.86942379	     45.77176653	     45.77176653	     11.92315817	    -19.03903097	     18.01176094	    -10.69791170	      4.61960324	      1.98607208	     34.43200335	    -19.49917803	    -13.45363580	     64.55823184	     45.18367672	      0.00000000	      0.00000000	     -6.94124609	     -8.18029607	      3.43761185	     24.91008764	     44.83225289	      0.00000000	      0.00000000
     18.20785714	     -3.76659740	     -3.85032721	      8.76058345	      1.00285806	      0.91375429	      0.53396644	     12.39683430	      3.97476751	    -11.89371719	     26.88955746	     26.88955746	     19.33645095	    -12.25585510	     -0.52086359	     35.28998020	     -8.68627029	      4.09204975	     41.09452842	     41.09452842	      9.12862417	    -18.70198710	     12.45410127	    -10.41849564	      4.50596877	      2.14639098	     36.35216039	    -20.04206896	    -12.82726541	     66.68788238	     45.17298909	      0.00000000	      0.00000000	     -9.28139138	     -9.18964051	      9.77063369	     27.15830222	     43.88442549	      0.00000000	      0.00000000
     18.22678571	     -4.23474320	     -3.76925900	      9.17733984	      1.00117791	      0.91498154	      0.53182062	     11.90460052	      3.76991055	    -12.33028667	     25.63255578	     25.63255578	     19.18202397	    -11.77337308	     -0.32866761	     35.00100688	     -7.86862800	      4.55021569	     36.93486320	     36.93486320	      8.60087703	    -17.58987011	     12.84182166	     -9.99115363	      4.25082488	      2.54845111	     38.31305164	    -20.59861784	    -12.81376574	     67.93735565	     45.14230771	      0.00000000	      0.00000000	    -10.45510712	     -9.02471682	      9.90373514	     27.05647327	     43.85392554	      0.00000000	      0.00000000
     18.24571429	     -4.46101074	     -3.75186234	      9.58610366	      0.99996058	      0.91625962	      0.52950301	     11.02835337	      3.57273379	    -13.25111323	     24.22814405	     24.22814405	     19.02266037	    -10.39302505	     -0.95724905	     34.17004605	     -7.31549552	      4.82670221	     32.57172834	     32.57172834	      6.66586397	    -16.33589873	      9.32109169	     -9.92622712	      4.15264389	      2.56240482	     39.92644475	    -21.17752760	    -11.48853381	     71.12677389	     45.02223982	      0.00000000	      0.00000000	    -12.42071122	     -9.24714643	     10.72342441	     28.97153111	     43.77225005	      0.00000000	      0.00000000
     18.26464286	     -4.78064009	     -3.77803389	      9.87055205	      0.99888995	      0.91718301	      0.52734391	     10.34533428	      3.56557321	    -13.55800903	     22.93891117	     22.93891117	     18.87748583	     -9.93702249	     -0.81147828	     33.54621312	     -6.92518079	      4.94395385	     28.89868623	     28.89868623	      6.33704499	    -14.16601805	      9.42537888	     -9.63531130	      3.97560820	      2.85514213	     41.87954372	    -21.45696259	    -11.48826154	     72.20615380	     44.99991763	      0.00000000	      0.00000000	    -13.48163014	     -9.10390538	     10.96304887	     28.86915281	     43.73687791	      0.00000000	      0.00000000
     18.28357143	     -5.03373216	     -3.90593485	     10.10807840	      0.99808752	      0.91764984	      0.52509975	      9.61296576	      3.61386454	    -14.10466259	     21.71348608	     21.71348608	     18.72903157	     -9.00488460	     -1.33172800	     32.90458961	     -6.80642728	      4.70378412	     25.68906977	     25.68906977	      5.47971815	    -11.69278258	      7.53854292	     -9.45719307	      3.94605874	      2.84570899	     43.80664418	    -21.65214129	    -10.70410685	     74.06919290	     44.94752087	      0.00000000	      0.00000000	    -14.92522854	     -9.15229017	     11.87059401	     30.11206310	     43.66761990	      0.00000000	      0.00000000
     18.30250000	     -5.34633687	     -3.97072005	     10.25042088	      0.99736731	      0.91783300	      0.52278754	      9.09918641	      3.61480347	    -14.32085457	     20.79518091	     20.79518091	     18.67371739	     -8.58038464	     -1.28059014	     32.34886350	     -6.59787252	      4.56988584	     23.06131278	     23.06131278	      5.19988466	     -9.69142776	      7.65569033	     -9.17959287	      3.79899767	      3.09741028	     45.64066849	    -21.69704911	    -10.61483322	     75.14839202	     44.92206032	      0.00000000	      0.00000000	    -15.67886108	     -8.93708980	     12.09484272	     30.13821154	     43.64261677	      0.00000000	      0.00000000
